<?xml version="1.0" encoding="UTF-8" standalone="no"?>
<!DOCTYPE svg PUBLIC "-//W3C//DTD SVG 1.1//EN" "http://www.w3.org/Graphics/SVG/1.1/DTD/svg11.dtd">
<svg xmlns="http://www.w3.org/2000/svg" xmlns:dc="http://purl.org/dc/elements/1.1/" version="1.1" xmlns:xl="http://www.w3.org/1999/xlink" viewBox="0 0 100 100" width="100" height="100">
  <defs/>
  <g id="dot_1" fill-opacity="1" stroke-dasharray="none" stroke-opacity="1" stroke="none" fill="none">
    <title>dependapro</title>
    <g id="dot_1_Layer_1">
      <title>Layer 1</title>
      <g id="Group_53">
        <g id="Graphic_54">
          <path d="M 49.447215 85.63421 C 49.74454 85.63421 50.04186 85.56004 50.339185 85.41138 C 50.63317 85.26306 50.856995 85.11439 51.00733 84.96607 L 87.53133 48.441057 C 88.4233 47.55009 89.0714 46.547875 89.47897 45.434416 C 89.88654 44.32062 90.09366 43.207163 90.09366 42.093703 C 90.09366 40.905746 89.88654 39.77358 89.47897 38.6972 C 89.0714 37.620824 88.4233 36.674066 87.53133 35.857596 L 68.59952 16.926915 C 67.784385 16.036047 66.83562 15.38648 65.75991 14.978144 C 64.6842 14.569842 63.5517 14.365691 62.36575 14.365691 C 61.24995 14.365691 60.137494 14.569842 59.02504 14.978144 C 57.90924 15.38648 56.907025 16.036047 56.018396 16.926915 L 54.792355 18.15182 L 63.03389 26.5036 C 64.14635 27.54293 64.96148 28.730754 65.48263 30.06714 C 66.000444 31.403424 66.26102 32.813873 66.26102 34.298485 C 66.26102 37.416706 65.205355 40.033486 63.08734 42.14916 C 60.97267 44.265166 58.356895 45.322836 55.23667 45.322836 C 53.75339 45.322836 52.32357 45.06326 50.950535 44.54345 C 49.5775 44.023633 48.371506 43.244245 47.332544 42.20495 L 38.980763 33.964414 L 19.491048 53.452125 C 19.27056 53.674616 19.103525 53.91615 18.989941 54.175723 C 18.879698 54.43563 18.822906 54.71391 18.822906 55.0109 C 18.822906 55.60488 19.046733 56.14307 19.491048 56.6258 C 19.938703 57.1082 20.456514 57.3494 21.05116 57.3494 C 21.348484 57.3494 21.645807 57.275236 21.94313 57.12691 C 22.237113 56.97825 22.46094 56.82992 22.611273 56.68126 L 34.637837 44.654693 C 35.45297 43.838223 36.47523 43.41128 37.69793 43.3742 C 38.92397 43.337116 39.982977 43.76406 40.871607 44.654693 C 41.69008 45.4715 42.09765 46.510793 42.09765 47.772914 C 42.09765 49.0347 41.69008 50.07433 40.871607 50.8908 L 28.958627 62.917365 C 28.7348 63.14019 28.567763 63.38139 28.45752 63.6413 C 28.343936 63.90087 28.290484 64.17949 28.290484 64.476476 C 28.290484 65.07012 28.51097 65.589935 28.958627 66.03525 C 29.40294 66.4809 29.92075 66.703394 30.5154 66.703394 C 30.812722 66.703394 31.110045 66.62923 31.40737 66.4809 C 31.704692 66.33224 31.92518 66.18391 32.07551 66.03525 L 44.102075 54.12027 C 44.91721 53.303463 45.939467 52.87652 47.16551 52.83944 C 48.38821 52.802356 49.447215 53.2293 50.339185 54.12027 C 51.15432 54.93674 51.561886 55.97603 51.561886 57.238154 C 51.561886 58.500275 51.15432 59.53957 50.339185 60.35604 L 38.422864 72.382605 C 38.199037 72.53127 38.032 72.75376 37.921758 73.05075 C 37.811514 73.34774 37.75472 73.64473 37.75472 73.941716 C 37.75472 74.53569 37.97855 75.055175 38.422864 75.50083 C 38.86718 75.94614 39.38833 76.16897 39.982977 76.16897 C 40.27696 76.16897 40.55758 76.11318 40.818155 76.00193 C 41.07539 75.89035 41.31926 75.72332 41.53975 75.50083 L 53.56631 63.58551 C 54.38479 62.76904 55.403705 62.342094 56.629746 62.30501 C 57.85579 62.26793 58.91145 62.69454 59.80342 63.58551 C 60.61856 64.40198 61.029464 65.44161 61.029464 66.703394 C 61.029464 67.965515 60.61856 69.00481 59.80342 69.821615 L 47.77686 81.84818 C 47.55303 82.07067 47.385995 82.3122 47.27575 82.57178 C 47.16551 82.831685 47.108716 83.10997 47.108716 83.40696 C 47.108716 84.00093 47.34925 84.52075 47.83365 84.96607 C 48.314713 85.41138 48.85257 85.63421 49.447215 85.63421 Z M 49.33697 94.54289 C 46.587565 94.54289 44.15887 93.63321 42.040856 91.81453 C 39.926185 89.99584 38.68344 87.7128 38.31262 84.96607 C 35.787042 84.59491 33.67237 83.55562 31.965268 81.84818 C 30.254823 80.14074 29.21586 78.02473 28.845042 75.50083 C 26.322805 75.12967 24.224837 74.07167 22.55448 72.32715 C 20.884125 70.582295 19.861867 68.48533 19.491048 66.03525 C 16.671487 65.6641 14.369736 64.43939 12.589136 62.36047 C 10.805196 60.28188 9.916567 57.83213 9.916567 55.0109 C 9.916567 53.52629 10.193846 52.09713 10.751745 50.723765 C 11.306303 49.3504 12.104733 48.14407 13.143695 47.10477 L 32.63341 27.617194 C 34.340514 25.909723 36.43514 25.05597 38.92397 25.05597 C 41.40946 25.05597 43.50743 25.909723 45.21453 27.617194 L 53.56631 35.96884 C 53.716645 36.191667 53.93713 36.358703 54.234456 36.46995 C 54.53178 36.58153 54.8291 36.636984 55.126426 36.636984 C 55.79457 36.636984 56.35247 36.432866 56.79678 36.02463 C 57.2411 35.616396 57.464924 35.078208 57.464924 34.410065 C 57.464924 34.113076 57.40813 33.816086 57.29789 33.519097 C 57.187645 33.222108 57.02061 32.999282 56.79678 32.850955 L 40.871607 16.926915 C 40.056473 16.036047 39.10771 15.38648 38.032 14.978144 C 36.95629 14.569842 35.82379 14.365691 34.637837 14.365691 C 33.52204 14.365691 32.409582 14.569842 31.297125 14.978144 C 30.181327 15.38648 29.179114 16.036047 28.290484 16.926915 L 12.589136 32.73971 C 11.546834 33.779005 10.805196 35.00371 10.360881 36.414492 C 9.916567 37.82494 9.802982 39.23539 10.02681 40.64584 C 10.250638 41.90796 9.990062 43.02142 9.248424 43.98655 C 8.503445 44.95168 7.501232 45.50858 6.241783 45.656907 C 4.978994 45.80557 3.863196 45.526953 2.901071 44.82173 C 1.935605 44.116505 1.377706 43.133 1.2307147 41.87088 C .7830593 39.04998 .9868427 36.28454 1.842065 33.574887 C 2.6939467 30.865235 4.1605194 28.470913 6.241783 26.392255 L 21.94313 10.690908 C 23.72373 8.983436 25.708114 7.684267 27.89962 6.793399 C 30.087787 5.9025646 32.336087 5.457114 34.637837 5.457114 C 36.936247 5.457114 39.184547 5.9025646 41.372713 6.793399 C 43.56422 7.684267 45.511856 8.983436 47.21896 10.690908 L 48.445 11.915847 L 49.67104 10.690908 C 51.45164 8.983436 53.436025 7.684267 55.62753 6.793399 C 57.8157 5.9025646 60.064 5.457114 62.36575 5.457114 C 64.66416 5.457114 66.91246 5.9025646 69.100625 6.793399 C 71.29213 7.684267 73.23977 8.983436 74.94687 10.690908 L 93.76844 29.510242 C 95.47555 31.21768 96.77509 33.185026 97.66372 35.41228 C 98.55569 37.639198 99 39.90353 99 42.20495 C 99 44.506366 98.55569 46.75199 97.66372 48.942163 C 96.77509 51.132 95.47555 53.08097 93.76844 54.78841 L 57.2411 91.20217 C 56.202135 92.24147 54.99614 93.05794 53.623105 93.65192 C 52.25007 94.2459 50.82025 94.54289 49.33697 94.54289 Z" fill="black"/>
        </g>
      </g>
    </g>
  </g>
</svg>
